# xmcd
#
# Track frame offsets:
#	150
#	17488
#	39509
#	55328
#	72316
#	89757
#	109420
#	122602
#	138581
#	157395
#	176292
#	189949
#	203709
#	217501
#	234072
#	250262
#	260045
#	272850
#	289075
#	305452
#	321196
#
# Disc length: 4447 seconds
#
# Revision: 0
# Processed by: cddbd v1.5.2PL0 Copyright (c) Steve Scherf et al.
# Submitted via: EZCDAudioConverter 3.1.0.1
#
DISCID=33115d15
DTITLE=Nu Urban Traxx Volume 229 US
DYEAR=2016
DGENRE=blues
TTITLE0=Usher ft. Future - Rivals
TTITLE1=Rae Sremmurd ft. Gucci Mane - Black Beatles
TTITLE2=Kevin Gates - Time For That
TTITLE3=Fat Joe, Rema Ma, French Montana ft. RySoValid - Cookin'
TTITLE4=Sevyn Streeter ft. Gucci Mane - Prolly
TTITLE5=Chance The Rapper ft. 2 Chainz and Lil' Wayne - No Problem
TTITLE6=Young Thug ft. Meek Mill - Digits
TTITLE7=Blac Youngsta ft. Rich Homie Quan - Beat It
TTITLE8=Usher - Missin U
TTITLE9=Gucci Mane ft. Travi$ Scott - Last Time
TTITLE10=Anderson .Paak - Come Down
TTITLE11=Rob $tone ft. J. Davi$ and Spooks - Chill Bill
TTITLE12=4EY The Future - No Time To Waste
TTITLE13=Yo Gotti ft. Blac Youngsta - Wait For It
TTITLE14=A$AP Ferg ft. Migos - Back Hurt
TTITLE15=A Boogie With Da Hoodie - My Sh*t
TTITLE16=Mike Will Made-It ft. Rihanna - Nothing Is Promised [Extra Clean Mix]
TTITLE17=Madeintyo ft. 2 Chainz - I Want
TTITLE18=Phresher - Wait A Minute
TTITLE19=Dae Dae - Spend It
TTITLE20=Lil Uzi Vert - You Was Right
EXTD=
EXTT0=
EXTT1=
EXTT2=
EXTT3=
EXTT4=
EXTT5=
EXTT6=
EXTT7=
EXTT8=
EXTT9=
EXTT10=
EXTT11=
EXTT12=
EXTT13=
EXTT14=
EXTT15=
EXTT16=
EXTT17=
EXTT18=
EXTT19=
EXTT20=
PLAYORDER=
